<svg width="29" height="29" viewBox="0 0 29 29" fill="none" xmlns="http://www.w3.org/2000/svg">
<path d="M14.4999 4.83331C15.7818 4.83331 17.0112 5.34254 17.9176 6.24896C18.824 7.15539 19.3333 8.38477 19.3333 9.66665C19.3333 10.9485 18.824 12.1779 17.9176 13.0843C17.0112 13.9908 15.7818 14.5 14.4999 14.5C13.218 14.5 11.9887 13.9908 11.0822 13.0843C10.1758 12.1779 9.66659 10.9485 9.66659 9.66665C9.66659 8.38477 10.1758 7.15539 11.0822 6.24896C11.9887 5.34254 13.218 4.83331 14.4999 4.83331ZM14.4999 7.24998C13.859 7.24998 13.2443 7.50459 12.7911 7.95781C12.3379 8.41102 12.0833 9.02571 12.0833 9.66665C12.0833 10.3076 12.3379 10.9223 12.7911 11.3755C13.2443 11.8287 13.859 12.0833 14.4999 12.0833C15.1409 12.0833 15.7555 11.8287 16.2088 11.3755C16.662 10.9223 16.9166 10.3076 16.9166 9.66665C16.9166 9.02571 16.662 8.41102 16.2088 7.95781C15.7555 7.50459 15.1409 7.24998 14.4999 7.24998ZM14.4999 15.7083C17.7262 15.7083 24.1666 17.3154 24.1666 20.5416V24.1666H4.83325V20.5416C4.83325 17.3154 11.2737 15.7083 14.4999 15.7083ZM14.4999 18.0041C10.9112 18.0041 7.12909 19.7683 7.12909 20.5416V21.8708H21.8708V20.5416C21.8708 19.7683 18.0887 18.0041 14.4999 18.0041Z" fill="black"/>
</svg>
